<svg width="1439" height="93" viewBox="0 0 1439 93" fill="none" xmlns="http://www.w3.org/2000/svg">
<path d="M145 0.197146C79 1.84697 18.3333 30.935 0 45.2728V93H1439V37.6129C1373.5 7.56245 1345 0.197146 1294 0.197146C1243 0.197146 1206.5 10.5086 1158.5 37.6129C1110.5 64.7172 1058 82.6886 1007 82.6886C956 82.6886 912.711 62.9721 857.5 37.6129C795 8.9056 779 2.55404 724 0.197146C669 -2.15975 620 16.99 585 37.6129C550 58.2358 496 82.6886 427 82.6886C371.8 82.6886 309.667 52.6381 285.5 37.6129C263.667 24.4536 211 -1.45268 145 0.197146Z" fill="#171F26"/>
</svg>
